<svg width="96" height="96" viewBox="0 0 96 96" fill="none" xmlns="http://www.w3.org/2000/svg">
<g clip-path="url(#clip0_39_145)">
<path fill-rule="evenodd" clip-rule="evenodd" d="M5.35049 44.2527L15.6496 57.9637C15.8104 58.1782 16.019 58.3523 16.2587 58.4722C16.4985 58.5921 16.7628 58.6546 17.0309 58.6546C17.299 58.6546 17.5633 58.5921 17.8031 58.4722C18.0428 58.3523 18.2514 58.1782 18.4122 57.9637L27.4632 45.9138C28.2782 44.8281 27.5821 43.2716 26.2299 43.1551L6.87979 41.4945C5.39144 41.3667 4.45363 43.0594 5.35049 44.2527Z" fill="#005FFF"/>
<path fill-rule="evenodd" clip-rule="evenodd" d="M5.35049 44.2527L15.6496 57.9637C15.8104 58.1782 16.019 58.3523 16.2587 58.4722C16.4985 58.5921 16.7628 58.6546 17.0309 58.6546C17.299 58.6546 17.5633 58.5921 17.8031 58.4722C18.0428 58.3523 18.2514 58.1782 18.4122 57.9637L27.4632 45.9138C28.2782 44.8281 27.5821 43.2716 26.2299 43.1551L6.87979 41.4945C5.39144 41.3667 4.45363 43.0594 5.35049 44.2527Z" fill="url(#paint0_linear_39_145)"/>
<path fill-rule="evenodd" clip-rule="evenodd" d="M69.8258 44.2008L51.0983 69.1325C50.2433 70.271 51.0553 71.8961 52.4796 71.8961H68.8169C69.1616 71.8961 69.5015 71.8159 69.8097 71.6617C70.118 71.5075 70.3861 71.2837 70.5929 71.0078L90.6494 44.3094C91.5532 43.1067 90.5942 41.4036 89.0975 41.5532L71.3822 43.3248C71.0763 43.3551 70.78 43.4486 70.5121 43.5993C70.2441 43.7501 70.0104 43.9549 69.8258 44.2008Z" fill="#005FFF"/>
<path fill-rule="evenodd" clip-rule="evenodd" d="M69.8258 44.2008L51.0983 69.1325C50.2433 70.271 51.0553 71.8961 52.4796 71.8961H68.8169C69.1616 71.8961 69.5015 71.8159 69.8097 71.6617C70.118 71.5075 70.3861 71.2837 70.5929 71.0078L90.6494 44.3094C91.5532 43.1067 90.5942 41.4036 89.0975 41.5532L71.3822 43.3248C71.0763 43.3551 70.78 43.4486 70.5121 43.5993C70.2441 43.7501 70.0104 43.9549 69.8258 44.2008Z" fill="url(#paint1_linear_39_145)"/>
<path fill-rule="evenodd" clip-rule="evenodd" d="M64.6583 44.407L44.5993 71.1133C44.3913 71.3908 44.1212 71.6157 43.8106 71.77C43.5001 71.9242 43.1578 72.0036 42.811 72.0016L27.2127 71.9029C26.8711 71.9009 26.5347 71.8202 26.2295 71.6669C25.9243 71.5136 25.6586 71.2919 25.453 71.0191L20.5291 64.491C20.2389 64.1063 20.0816 63.6376 20.0811 63.1556C20.0805 62.6736 20.2367 62.2046 20.5262 61.8192L48.2697 24.8845C48.4757 24.6102 48.7426 24.3873 49.0492 24.2335C49.3558 24.0796 49.6939 23.999 50.037 23.9978C50.38 23.9967 50.7187 24.0751 51.0263 24.2269C51.334 24.3786 51.6023 24.5997 51.8102 24.8727L64.6485 41.7253C64.9421 42.1101 65.1019 42.5804 65.1037 43.0645C65.1055 43.5486 64.9491 44.02 64.6583 44.407Z" fill="#005FFF"/>
<path fill-rule="evenodd" clip-rule="evenodd" d="M64.6583 44.407L44.5993 71.1133C44.3913 71.3908 44.1212 71.6157 43.8106 71.77C43.5001 71.9242 43.1578 72.0036 42.811 72.0016L27.2127 71.9029C26.8711 71.9009 26.5347 71.8202 26.2295 71.6669C25.9243 71.5136 25.6586 71.2919 25.453 71.0191L20.5291 64.491C20.2389 64.1063 20.0816 63.6376 20.0811 63.1556C20.0805 62.6736 20.2367 62.2046 20.5262 61.8192L48.2697 24.8845C48.4757 24.6102 48.7426 24.3873 49.0492 24.2335C49.3558 24.0796 49.6939 23.999 50.037 23.9978C50.38 23.9967 50.7187 24.0751 51.0263 24.2269C51.334 24.3786 51.6023 24.5997 51.8102 24.8727L64.6485 41.7253C64.9421 42.1101 65.1019 42.5804 65.1037 43.0645C65.1055 43.5486 64.9491 44.02 64.6583 44.407Z" fill="url(#paint2_linear_39_145)"/>
</g>
<defs>
<linearGradient id="paint0_linear_39_145" x1="-82.4168" y1="-39.2571" x2="-106.73" y2="9.40519" gradientUnits="userSpaceOnUse">
<stop offset="0.177786" stop-color="#B38AF8"/>
<stop offset="0.563822" stop-color="#005FFF"/>
<stop offset="1" stop-color="#00ECBB"/>
</linearGradient>
<linearGradient id="paint1_linear_39_145" x1="-103.496" y1="-101.218" x2="-150.004" y2="-8.55875" gradientUnits="userSpaceOnUse">
<stop offset="0.177786" stop-color="#B38AF8"/>
<stop offset="0.563822" stop-color="#005FFF"/>
<stop offset="1" stop-color="#00ECBB"/>
</linearGradient>
<linearGradient id="paint2_linear_39_145" x1="-152.449" y1="-201.789" x2="-238.098" y2="-85.4699" gradientUnits="userSpaceOnUse">
<stop offset="0.177786" stop-color="#B38AF8"/>
<stop offset="0.563822" stop-color="#005FFF"/>
<stop offset="1" stop-color="#00ECBB"/>
</linearGradient>
<clipPath id="clip0_39_145">
<rect width="86" height="48" fill="white" transform="translate(5 24)"/>
</clipPath>
</defs>
</svg>
